<svg xmlns="http://www.w3.org/2000/svg" xmlns:xlink="http://www.w3.org/1999/xlink" width="274" zoomAndPan="magnify" viewBox="0 0 205.5 68.999997" height="92" preserveAspectRatio="xMidYMid meet" version="1.0"><defs><g/><clipPath id="4661f4f1e7"><path d="M 19 10 L 72 10 L 72 60 L 19 60 Z M 19 10 " clip-rule="nonzero"/></clipPath><clipPath id="362d05e934"><path d="M 6.882812 29.75 L 45.917969 -1.703125 L 76.898438 36.746094 L 37.867188 68.199219 Z M 6.882812 29.75 " clip-rule="nonzero"/></clipPath><clipPath id="64ea11defb"><path d="M 6.882812 29.75 L 45.917969 -1.703125 L 76.898438 36.746094 L 37.867188 68.199219 Z M 6.882812 29.75 " clip-rule="nonzero"/></clipPath><clipPath id="c04c1803ac"><path d="M 6.882812 29.75 L 45.917969 -1.703125 L 76.898438 36.746094 L 37.867188 68.199219 Z M 6.882812 29.75 " clip-rule="nonzero"/></clipPath><clipPath id="30b44f69e6"><path d="M 21 13 L 69 13 L 69 58 L 21 58 Z M 21 13 " clip-rule="nonzero"/></clipPath><clipPath id="4c9ba22bb2"><path d="M 6.882812 29.75 L 45.917969 -1.703125 L 76.898438 36.746094 L 37.867188 68.199219 Z M 6.882812 29.75 " clip-rule="nonzero"/></clipPath><clipPath id="60dffa3f9c"><path d="M 6.882812 29.75 L 45.917969 -1.703125 L 76.898438 36.746094 L 37.867188 68.199219 Z M 6.882812 29.75 " clip-rule="nonzero"/></clipPath><clipPath id="101f9f7361"><path d="M 6.882812 29.75 L 45.917969 -1.703125 L 76.898438 36.746094 L 37.867188 68.199219 Z M 6.882812 29.75 " clip-rule="nonzero"/></clipPath><clipPath id="7457c58243"><path d="M 22 12 L 69 12 L 69 57 L 22 57 Z M 22 12 " clip-rule="nonzero"/></clipPath><clipPath id="6457a30ee2"><path d="M 6.882812 29.75 L 45.917969 -1.703125 L 76.898438 36.746094 L 37.867188 68.199219 Z M 6.882812 29.75 " clip-rule="nonzero"/></clipPath><clipPath id="b725376955"><path d="M 6.882812 29.75 L 45.917969 -1.703125 L 76.898438 36.746094 L 37.867188 68.199219 Z M 6.882812 29.75 " clip-rule="nonzero"/></clipPath><clipPath id="40c315d07d"><path d="M 6.882812 29.75 L 45.917969 -1.703125 L 76.898438 36.746094 L 37.867188 68.199219 Z M 6.882812 29.75 " clip-rule="nonzero"/></clipPath></defs><g clip-path="url(#4661f4f1e7)"><g clip-path="url(#362d05e934)"><g clip-path="url(#64ea11defb)"><g clip-path="url(#c04c1803ac)"><path fill="#4a71f6" d="M 56.445312 11.632812 C 55.953125 11.191406 55.839844 10.765625 55.105469 10.632812 C 54.773438 10.585938 54.503906 10.347656 54.179688 10.355469 C 53.890625 10.394531 53.613281 10.378906 53.335938 10.464844 C 52.945312 10.550781 52.632812 10.765625 52.277344 10.925781 C 51.988281 11.027344 51.753906 11.195312 51.53125 11.398438 C 51.300781 11.457031 51.160156 11.648438 50.988281 11.796875 C 50.613281 12.109375 50.203125 12.378906 49.886719 12.761719 C 49.214844 13.339844 48.511719 13.90625 48 14.648438 C 47.753906 15.074219 47.230469 15.167969 47.015625 15.617188 C 46.914062 15.917969 46.539062 15.976562 46.398438 16.242188 C 46.289062 16.472656 46.09375 16.628906 45.921875 16.792969 C 45.808594 16.90625 45.703125 17.03125 45.539062 17.078125 C 45.464844 17.097656 45.410156 17.15625 45.359375 17.21875 C 45.207031 17.519531 44.957031 17.734375 44.6875 17.925781 C 44.558594 18.003906 44.558594 18.160156 44.453125 18.253906 C 44.277344 18.398438 44.164062 18.636719 43.902344 18.660156 C 43.875 18.65625 43.835938 18.6875 43.824219 18.722656 C 43.757812 18.863281 43.621094 18.914062 43.492188 18.992188 C 43.15625 19.160156 42.742188 20.027344 42.324219 19.90625 C 41.800781 19.757812 41.570312 19.160156 41.003906 19.105469 C 40.921875 19.097656 40.828125 19.058594 40.792969 18.984375 C 40.640625 18.703125 40.308594 18.605469 40.132812 18.339844 C 40.09375 18.292969 40.042969 18.261719 39.988281 18.253906 C 39.847656 18.242188 39.773438 18.164062 39.726562 18.046875 C 39.710938 18.007812 39.6875 17.964844 39.648438 17.945312 C 39.402344 17.8125 39.207031 17.617188 38.984375 17.46875 C 38.824219 17.367188 38.652344 17.265625 38.554688 17.128906 C 38.324219 16.808594 37.960938 16.65625 37.675781 16.417969 C 37.554688 16.3125 37.453125 16.191406 37.339844 16.09375 C 37.183594 15.964844 36.953125 15.960938 36.847656 15.769531 C 36.46875 15.679688 36.246094 15.351562 35.914062 15.164062 C 35.605469 14.941406 35.257812 14.792969 35 14.507812 C 34.910156 14.425781 34.835938 14.335938 34.699219 14.355469 C 34.621094 14.367188 34.585938 14.292969 34.550781 14.234375 C 34.472656 14.105469 34.394531 13.980469 34.222656 13.941406 C 34.191406 13.929688 34.160156 13.890625 34.132812 13.859375 C 34.066406 13.777344 34.003906 13.699219 33.890625 13.703125 C 33.855469 13.703125 33.816406 13.6875 33.804688 13.65625 C 33.730469 13.488281 33.566406 13.457031 33.417969 13.398438 C 33.230469 13.359375 33.175781 13.164062 33.011719 13.117188 C 32.730469 13.066406 32.523438 12.828125 32.230469 12.8125 C 32.015625 12.5625 31.800781 12.816406 31.558594 12.753906 C 31.480469 12.65625 31.398438 12.507812 31.28125 12.460938 C 31.066406 12.378906 30.84375 12.28125 30.601562 12.359375 C 30.464844 12.410156 30.328125 12.402344 30.238281 12.273438 C 29.691406 11.929688 28.605469 12.246094 28.125 12.632812 C 27.714844 13.039062 27.273438 13.410156 27.007812 13.9375 C 26.878906 14.207031 26.785156 14.484375 26.664062 14.746094 C 26.351562 15.46875 26.425781 16.257812 26.371094 17.011719 C 26.292969 17.441406 26.507812 17.816406 26.472656 18.234375 C 26.417969 18.6875 26.621094 19.117188 26.636719 19.5625 C 26.550781 19.933594 26.769531 20.25 26.816406 20.59375 C 26.984375 20.675781 26.917969 20.816406 26.910156 20.949219 C 26.9375 21.359375 27.003906 21.773438 27.207031 22.140625 C 27.261719 22.679688 27.300781 23.21875 27.464844 23.746094 C 27.503906 23.855469 27.613281 23.929688 27.617188 24.027344 C 27.632812 24.332031 27.726562 24.625 27.777344 24.925781 C 27.832031 25.210938 27.855469 25.511719 28.007812 25.777344 C 28.042969 25.824219 28.050781 25.882812 28.042969 25.953125 C 28.023438 26.195312 28.121094 26.398438 28.265625 26.574219 C 28.3125 26.636719 28.363281 26.695312 28.363281 26.773438 C 28.3125 27.09375 28.457031 27.367188 28.546875 27.652344 C 28.601562 27.832031 28.59375 28.042969 28.710938 28.203125 C 28.894531 28.433594 28.65625 28.753906 28.929688 28.9375 C 29.007812 29.003906 29.046875 29.082031 29.03125 29.1875 C 29.015625 29.375 29.058594 29.554688 29.089844 29.734375 C 29.128906 29.957031 29.265625 30.164062 29.324219 30.394531 C 29.523438 30.527344 29.570312 30.855469 29.371094 31.003906 C 28.941406 31.25 28.976562 31.863281 28.484375 32.046875 C 28.347656 32.082031 28.339844 32.277344 28.214844 32.339844 C 27.972656 32.484375 27.953125 32.765625 27.808594 33.011719 C 27.304688 32.972656 27.328125 33.636719 26.890625 33.773438 C 26.816406 33.808594 26.808594 33.929688 26.726562 33.96875 C 26.484375 34.078125 26.359375 34.316406 26.210938 34.515625 C 26.101562 34.652344 26.046875 34.835938 25.859375 34.886719 C 25.828125 34.898438 25.789062 34.941406 25.769531 34.96875 C 25.671875 35.160156 25.417969 35.226562 25.335938 35.445312 C 25.109375 35.527344 25.035156 35.765625 24.855469 35.910156 C 24.632812 36.089844 24.398438 36.289062 24.289062 36.582031 C 24.277344 36.617188 24.238281 36.632812 24.214844 36.652344 C 24.003906 36.769531 23.957031 37.027344 23.777344 37.167969 C 23.652344 37.21875 23.59375 37.320312 23.570312 37.4375 C 23.460938 37.804688 23.007812 37.941406 22.882812 38.324219 C 22.84375 38.402344 22.792969 38.46875 22.71875 38.515625 C 22.4375 38.691406 22.367188 39.03125 22.175781 39.269531 C 21.789062 39.644531 21.542969 40.132812 21.160156 40.496094 C 21.019531 40.609375 20.941406 40.75 20.933594 40.929688 C 20.929688 41.113281 20.820312 41.214844 20.652344 41.246094 C 20.515625 41.265625 20.429688 41.351562 20.410156 41.46875 C 20.335938 41.882812 19.949219 42.117188 19.835938 42.5 C 19.574219 44.105469 19.417969 45.292969 21.390625 45.617188 C 21.878906 45.71875 22.378906 45.785156 22.886719 45.84375 C 23.070312 45.863281 23.25 45.769531 23.417969 45.820312 C 23.792969 45.886719 24.171875 45.886719 24.546875 45.886719 C 24.695312 45.882812 24.808594 45.992188 24.957031 46 C 25.476562 46.078125 25.988281 46.042969 26.507812 45.980469 C 26.839844 45.992188 27.167969 46.003906 27.503906 45.976562 C 28.078125 45.957031 28.652344 45.863281 29.226562 45.878906 C 29.722656 45.910156 30.191406 45.699219 30.675781 45.761719 C 31.039062 45.816406 31.390625 45.730469 31.753906 45.707031 C 32.109375 45.636719 32.488281 45.773438 32.839844 45.628906 C 32.953125 45.625 33.039062 45.683594 33.164062 45.648438 C 33.714844 45.523438 34.277344 45.652344 34.832031 45.582031 C 35.203125 45.484375 35.570312 45.558594 35.941406 45.578125 C 36.21875 45.605469 36.253906 45.980469 36.351562 46.195312 C 36.460938 46.792969 36.761719 47.324219 36.914062 47.894531 C 36.953125 48.132812 37.039062 48.351562 37.164062 48.554688 C 37.265625 48.726562 37.335938 48.910156 37.375 49.097656 C 37.441406 49.484375 37.636719 49.820312 37.796875 50.175781 C 37.933594 50.472656 38.125 50.746094 38.195312 51.070312 C 38.230469 51.191406 38.28125 51.304688 38.355469 51.410156 C 38.808594 52.097656 39.085938 52.875 39.519531 53.566406 C 39.769531 53.957031 39.953125 54.40625 40.210938 54.792969 C 40.375 55.308594 40.8125 55.679688 40.988281 56.167969 C 41.007812 56.304688 41.082031 56.425781 41.183594 56.519531 C 41.5 56.847656 41.730469 57.246094 42.023438 57.59375 C 42.296875 57.914062 42.507812 58.304688 42.921875 58.488281 C 43.242188 58.839844 43.65625 59.050781 44.078125 59.242188 C 44.117188 59.257812 44.167969 59.273438 44.203125 59.269531 C 44.664062 59.175781 44.960938 59.8125 45.425781 59.535156 C 45.472656 59.5 45.527344 59.519531 45.574219 59.53125 C 45.832031 59.613281 46.074219 59.546875 46.304688 59.421875 C 46.371094 59.394531 46.472656 59.390625 46.496094 59.308594 C 46.558594 59.132812 46.703125 59.140625 46.847656 59.125 C 46.910156 59.125 46.960938 59.125 47.015625 59.082031 C 47.160156 58.960938 47.347656 58.875 47.457031 58.710938 C 47.484375 58.664062 47.515625 58.625 47.574219 58.617188 C 47.722656 58.597656 47.792969 58.492188 47.863281 58.359375 C 47.917969 58.238281 48.105469 58.25 48.144531 58.09375 C 48.167969 58.011719 48.195312 57.949219 48.285156 57.929688 C 48.6875 57.640625 48.59375 57.046875 48.867188 56.6875 C 49.007812 56.5 49.109375 56.277344 49.117188 56.03125 C 49.117188 55.90625 49.117188 55.765625 49.183594 55.660156 C 49.410156 55.222656 49.296875 54.71875 49.507812 54.285156 C 49.578125 54.152344 49.625 54 49.640625 53.847656 C 49.699219 53.332031 49.777344 52.824219 49.9375 52.328125 C 50.152344 51.613281 50.175781 50.867188 50.34375 50.140625 C 50.441406 49.820312 50.453125 49.46875 50.503906 49.136719 C 50.695312 47.613281 51.003906 46.109375 51.242188 44.597656 C 51.398438 43.96875 51.546875 43.328125 51.582031 42.675781 C 51.589844 42.574219 51.714844 42.570312 51.78125 42.621094 C 51.984375 42.734375 52.214844 42.765625 52.445312 42.78125 C 53.085938 42.734375 53.648438 43.128906 54.304688 43.042969 C 54.375 43.039062 54.449219 43.015625 54.5 43.078125 C 54.621094 43.230469 54.824219 43.257812 54.988281 43.242188 C 55.308594 43.199219 55.582031 43.359375 55.871094 43.417969 C 56.164062 43.484375 56.449219 43.535156 56.746094 43.523438 C 56.832031 43.515625 56.917969 43.496094 56.996094 43.546875 C 57.199219 43.6875 57.457031 43.671875 57.675781 43.710938 C 58.253906 43.777344 58.816406 43.96875 59.410156 43.960938 C 59.601562 44.007812 59.78125 44.054688 59.984375 44.042969 C 60.050781 44.039062 60.121094 44.035156 60.1875 44.070312 C 60.425781 44.207031 60.675781 43.992188 60.929688 44.105469 C 61.1875 44.152344 61.4375 44.226562 61.710938 44.171875 C 61.769531 44.164062 61.835938 44.148438 61.890625 44.167969 C 62.222656 44.28125 62.542969 44.121094 62.875 44.121094 C 63.21875 44.1875 63.5625 44.214844 63.90625 44.199219 C 64.308594 44.195312 64.722656 44.292969 65.105469 44.085938 C 65.171875 44.042969 65.257812 44.023438 65.34375 44.082031 C 65.488281 44.183594 65.625 44.148438 65.78125 44.085938 C 66.210938 43.839844 66.699219 43.878906 67.128906 43.667969 C 67.398438 43.554688 67.699219 43.550781 67.945312 43.394531 C 68.054688 43.328125 68.171875 43.296875 68.289062 43.253906 C 68.511719 43.179688 68.75 43.125 68.941406 42.96875 C 69.222656 42.746094 69.53125 42.558594 69.757812 42.285156 C 69.847656 42.191406 69.953125 42.132812 70.078125 42.082031 C 70.246094 42.019531 70.429688 41.960938 70.542969 41.832031 C 71.210938 41.191406 71.171875 40.398438 71.296875 39.550781 C 71.34375 39.3125 71.324219 39.097656 71.144531 38.902344 C 71 38.738281 70.902344 38.539062 70.695312 38.441406 C 70.464844 38.105469 70.269531 37.691406 69.875 37.503906 C 69.769531 37.449219 69.648438 37.410156 69.578125 37.3125 C 69.402344 36.996094 69.117188 36.847656 68.792969 36.714844 C 68.402344 36.421875 68.078125 36.050781 67.644531 35.828125 C 67.414062 35.6875 67.25 35.449219 66.980469 35.339844 C 66.839844 35.273438 66.65625 35.207031 66.585938 35.085938 C 66.46875 34.875 66.28125 34.789062 66.113281 34.65625 C 65.644531 34.3125 65.105469 34.074219 64.644531 33.722656 C 64.464844 33.578125 64.234375 33.496094 64.023438 33.378906 C 63.550781 33.0625 63.109375 32.71875 62.59375 32.460938 C 61.617188 31.929688 60.71875 31.261719 59.75 30.722656 C 59.433594 30.535156 59.128906 30.363281 58.839844 30.128906 C 58.664062 29.992188 58.480469 29.847656 58.25 29.792969 C 58.152344 29.769531 58.054688 29.746094 57.964844 29.679688 C 57.527344 29.375 57.03125 29.152344 56.585938 28.855469 C 56.394531 28.726562 56.257812 28.621094 56.265625 28.375 C 56.246094 28.148438 56.492188 28.027344 56.433594 27.796875 C 56.457031 27.523438 56.601562 27.257812 56.609375 26.984375 C 56.578125 26.691406 56.878906 26.460938 56.726562 26.191406 C 56.695312 26.140625 56.703125 26.097656 56.714844 26.050781 C 56.925781 25.347656 57.058594 24.609375 57.183594 23.875 C 57.214844 23.632812 57.296875 23.402344 57.234375 23.148438 C 57.332031 22.890625 57.359375 22.605469 57.421875 22.335938 C 57.449219 22.050781 57.328125 21.726562 57.476562 21.46875 C 57.589844 21.214844 57.5625 20.957031 57.550781 20.703125 C 57.492188 20.457031 57.730469 20.261719 57.675781 20.019531 C 57.632812 19.761719 57.628906 19.535156 57.730469 19.277344 C 57.863281 18.828125 57.816406 18.320312 57.816406 17.851562 C 57.832031 17.722656 57.859375 17.601562 57.773438 17.480469 C 57.738281 17.433594 57.75 17.386719 57.785156 17.332031 C 57.996094 17.058594 57.820312 16.757812 57.824219 16.476562 C 57.824219 16.386719 57.789062 16.289062 57.8125 16.195312 C 57.824219 16.148438 57.835938 16.097656 57.820312 16.046875 C 57.71875 15.714844 57.792969 15.347656 57.640625 15.015625 C 57.59375 14.925781 57.710938 14.832031 57.671875 14.75 C 57.574219 14.613281 57.621094 14.4375 57.574219 14.28125 C 57.472656 13.933594 57.441406 13.578125 57.316406 13.234375 C 57.242188 13.03125 57.109375 12.832031 57.121094 12.59375 C 56.902344 12.277344 56.835938 11.863281 56.511719 11.601562 Z M 56.445312 11.632812 " fill-opacity="1" fill-rule="nonzero"/></g></g></g></g><g clip-path="url(#30b44f69e6)"><g clip-path="url(#4c9ba22bb2)"><g clip-path="url(#60dffa3f9c)"><g clip-path="url(#101f9f7361)"><path fill="#febf00" d="M 55.261719 13.804688 C 54.425781 13.816406 53.808594 14.492188 53.351562 15.125 C 53.167969 15.4375 52.738281 15.621094 52.664062 15.984375 C 52.621094 16.183594 52.53125 16.296875 52.363281 16.390625 C 52.019531 16.707031 51.636719 16.992188 51.308594 17.328125 C 50.9375 17.503906 50.714844 17.847656 50.410156 18.101562 C 50.042969 18.324219 49.832031 18.699219 49.511719 18.96875 C 49.101562 19.363281 48.613281 19.691406 48.257812 20.152344 C 47.746094 20.707031 47.195312 21.242188 46.648438 21.769531 C 46.101562 22.386719 45.523438 22.953125 44.875 23.464844 C 44.496094 23.707031 44.25 24.195312 43.710938 24.113281 C 43.777344 23.765625 43.554688 23.425781 43.277344 23.257812 C 43.222656 23.222656 43.148438 23.207031 43.121094 23.140625 C 43.042969 22.902344 42.746094 22.976562 42.621094 22.808594 C 42.527344 22.644531 42.300781 22.597656 42.238281 22.394531 C 41.960938 22.226562 41.628906 22.113281 41.429688 21.820312 C 41.082031 21.464844 40.730469 21.128906 40.277344 20.882812 C 39.039062 20.171875 37.832031 19.398438 36.59375 18.683594 C 36.003906 18.285156 35.414062 17.859375 34.945312 17.324219 C 34.816406 17.097656 34.546875 17.050781 34.414062 16.839844 C 34.101562 16.371094 33.625 16.082031 33.21875 15.6875 C 32.109375 14.785156 31.65625 14.210938 30.078125 14.480469 C 29.808594 14.496094 29.742188 14.75 29.636719 14.949219 C 29.390625 15.183594 29.699219 15.40625 29.832031 15.605469 C 29.875 15.65625 29.917969 15.710938 29.890625 15.785156 C 29.792969 16.078125 29.859375 16.367188 29.890625 16.660156 C 29.941406 16.847656 29.816406 17.023438 29.90625 17.203125 C 30.015625 17.546875 30.046875 17.902344 30.058594 18.261719 C 30.074219 18.613281 30.179688 18.933594 30.367188 19.230469 C 30.421875 19.296875 30.46875 19.375 30.46875 19.449219 C 30.484375 19.664062 30.574219 19.835938 30.671875 20.007812 C 30.710938 20.054688 30.738281 20.105469 30.699219 20.164062 C 30.585938 20.34375 30.664062 20.519531 30.695312 20.699219 C 30.730469 20.9375 30.746094 21.175781 30.894531 21.375 C 30.902344 21.480469 30.855469 21.582031 30.921875 21.695312 C 31.171875 22.496094 31.273438 23.351562 31.601562 24.125 C 31.789062 24.46875 31.816406 24.851562 31.9375 25.222656 C 32.238281 25.941406 32.515625 26.683594 32.699219 27.449219 C 32.988281 28.113281 33.265625 28.816406 33.429688 29.53125 C 33.472656 30.027344 33.71875 30.476562 33.785156 30.96875 C 33.929688 31.117188 33.921875 31.3125 33.9375 31.503906 C 34.035156 31.960938 33.574219 31.785156 33.578125 32.136719 C 33.582031 32.269531 33.492188 32.347656 33.378906 32.347656 C 33.019531 32.394531 32.800781 32.789062 32.449219 32.84375 C 32.203125 32.890625 32.027344 33.097656 31.765625 33.074219 C 31.5625 33.265625 31.300781 33.335938 31.085938 33.511719 C 30.742188 33.800781 30.359375 34.019531 29.941406 34.167969 C 29.59375 34.308594 29.296875 34.574219 28.90625 34.609375 C 28.648438 34.703125 28.523438 35.007812 28.226562 35.054688 C 28.082031 35.171875 27.976562 35.359375 27.828125 35.476562 C 27.433594 35.730469 27.222656 36.167969 26.835938 36.429688 C 26.574219 36.742188 26.390625 37.128906 26.058594 37.398438 C 25.902344 37.523438 25.824219 37.710938 25.734375 37.886719 C 25.621094 38.078125 25.449219 38.230469 25.363281 38.425781 C 25.160156 38.855469 24.839844 39.203125 24.625 39.617188 C 24.492188 39.988281 24.214844 40.261719 23.964844 40.539062 C 23.6875 40.84375 23.425781 41.167969 23.148438 41.476562 C 22.691406 42.050781 21.898438 42.574219 22.007812 43.386719 C 22.046875 43.59375 22.101562 43.628906 22.296875 43.558594 C 22.960938 43.367188 23.433594 42.84375 24.007812 42.507812 C 24.375 42.363281 24.757812 42.234375 25.128906 42.113281 C 26.175781 41.953125 27.222656 41.78125 28.285156 41.683594 C 28.523438 41.683594 28.765625 41.601562 29.007812 41.585938 C 29.1875 41.566406 29.355469 41.621094 29.535156 41.589844 C 30.492188 41.351562 31.472656 41.488281 32.417969 41.21875 C 32.75 41.0625 33.136719 41.070312 33.492188 41.050781 C 33.835938 41.0625 34.136719 40.847656 34.472656 40.917969 C 34.492188 40.925781 34.523438 40.902344 34.539062 40.890625 C 34.695312 40.765625 34.871094 40.75 35.058594 40.789062 C 35.167969 40.8125 35.261719 40.789062 35.335938 40.703125 C 35.398438 40.640625 35.460938 40.578125 35.558594 40.601562 C 36.128906 40.710938 36.707031 40.285156 37.230469 40.648438 C 37.488281 40.808594 38.417969 41.441406 38.132812 41.785156 C 37.992188 41.894531 37.898438 42.0625 37.695312 42.109375 C 37.207031 42.25 37.71875 42.777344 37.613281 43.101562 C 37.746094 43.523438 37.976562 43.9375 37.972656 44.40625 C 37.976562 44.554688 38.113281 44.660156 38.121094 44.796875 C 38.105469 45.109375 38.28125 45.390625 38.300781 45.703125 C 38.308594 45.820312 38.34375 45.945312 38.429688 46.054688 C 38.882812 47.171875 39.226562 48.351562 39.78125 49.4375 C 40.144531 49.917969 40.300781 50.511719 40.664062 50.996094 C 40.792969 51.296875 41.023438 51.566406 41.132812 51.847656 C 41.171875 52.054688 41.355469 52.199219 41.421875 52.398438 C 41.554688 52.875 41.96875 53.199219 42.121094 53.660156 C 42.453125 54.433594 42.898438 55.148438 43.367188 55.835938 C 43.699219 56.328125 43.925781 56.882812 44.296875 57.34375 C 44.53125 57.585938 44.808594 57.628906 45.089844 57.4375 C 45.167969 57.375 45.246094 57.363281 45.347656 57.394531 C 45.671875 57.476562 45.980469 57.46875 46.261719 57.242188 C 46.34375 57.175781 46.390625 57.101562 46.40625 56.996094 C 46.589844 56.253906 46.132812 55.46875 46.585938 54.777344 C 46.628906 54.703125 46.664062 54.625 46.675781 54.539062 C 46.742188 54.054688 46.949219 53.597656 46.933594 53.101562 C 46.933594 53.050781 46.953125 53 46.964844 52.949219 C 47.125 52.59375 47.0625 52.199219 47.136719 51.835938 C 47.300781 51.4375 47.332031 50.996094 47.464844 50.59375 C 47.480469 50.546875 47.484375 50.492188 47.460938 50.445312 C 47.359375 50.289062 47.414062 50.117188 47.464844 49.960938 C 47.609375 49.695312 47.335938 49.417969 47.53125 49.1875 C 47.75 48.921875 47.570312 48.585938 47.667969 48.277344 C 47.796875 47.742188 47.808594 47.199219 47.941406 46.664062 C 47.964844 46.570312 47.96875 46.464844 47.953125 46.363281 C 47.863281 46.015625 48.199219 45.71875 48.054688 45.382812 C 48.019531 45.320312 48.054688 45.269531 48.085938 45.214844 C 48.21875 44.996094 48.132812 44.75 48.191406 44.523438 C 48.234375 44.402344 48.277344 44.277344 48.191406 44.15625 C 48.152344 44.109375 48.175781 44.054688 48.214844 44.011719 C 48.417969 43.773438 48.296875 43.527344 48.347656 43.257812 C 48.453125 42.882812 48.476562 42.496094 48.484375 42.109375 C 48.476562 41.59375 48.683594 41.125 48.730469 40.628906 C 48.726562 40.542969 48.757812 40.46875 48.808594 40.390625 C 49.035156 40.070312 48.96875 39.652344 49.1875 39.339844 C 49.34375 38.996094 49.699219 39.101562 49.96875 38.949219 C 50.023438 38.902344 50.097656 38.882812 50.160156 38.898438 C 50.359375 38.925781 50.546875 38.839844 50.71875 38.75 C 50.957031 38.621094 51.230469 38.640625 51.472656 38.546875 C 51.511719 38.53125 51.570312 38.542969 51.621094 38.554688 C 51.960938 38.660156 52.304688 38.691406 52.648438 38.675781 C 52.714844 38.675781 52.796875 38.671875 52.84375 38.710938 C 53.019531 38.882812 53.234375 38.738281 53.441406 38.773438 C 53.636719 38.804688 53.820312 38.910156 54.035156 38.839844 C 54.050781 38.828125 54.089844 38.847656 54.101562 38.863281 C 54.207031 38.941406 54.320312 38.925781 54.4375 38.933594 C 54.796875 38.949219 55.113281 39.136719 55.476562 39.125 C 56.066406 39.179688 56.617188 39.355469 57.195312 39.5 C 57.554688 39.613281 57.953125 39.457031 58.285156 39.710938 C 58.308594 39.742188 58.367188 39.734375 58.410156 39.738281 C 58.777344 39.832031 59.167969 39.859375 59.535156 39.996094 C 60.125 40.027344 60.703125 40.144531 61.273438 40.265625 C 62.085938 40.4375 62.925781 40.417969 63.730469 40.621094 C 63.285156 40.734375 62.824219 40.574219 62.355469 40.722656 C 62.839844 41.082031 62.792969 41.613281 62.128906 41.644531 C 61.890625 41.621094 61.660156 41.679688 61.4375 41.578125 C 61.347656 41.5625 61.199219 41.632812 61.117188 41.59375 C 60.902344 41.453125 60.71875 41.527344 60.488281 41.558594 C 60.191406 41.457031 59.867188 41.453125 59.554688 41.382812 C 59.390625 41.351562 59.230469 41.265625 59.058594 41.304688 C 58.839844 41.367188 58.628906 41.308594 58.414062 41.316406 C 57.683594 41.308594 56.984375 41.074219 56.242188 41.28125 C 56.554688 41.445312 56.917969 41.28125 57.207031 41.527344 C 57.464844 41.738281 57.808594 41.625 58.097656 41.761719 C 58.15625 41.800781 58.226562 41.808594 58.296875 41.804688 C 58.414062 41.785156 58.515625 41.820312 58.613281 41.863281 C 58.929688 42.003906 59.261719 42.078125 59.621094 42.066406 C 59.707031 42.0625 59.789062 42.070312 59.871094 42.105469 C 60.277344 42.261719 60.710938 42.230469 61.128906 42.335938 C 61.25 42.390625 61.371094 42.289062 61.496094 42.304688 C 61.953125 42.316406 62.414062 42.3125 62.871094 42.375 C 63.175781 42.433594 63.453125 42.273438 63.75 42.324219 C 63.875 42.351562 64.007812 42.347656 64.125 42.300781 C 64.550781 42.113281 65.011719 42.082031 65.460938 42.089844 C 65.863281 42.003906 66.273438 41.925781 66.652344 41.761719 C 66.800781 41.691406 66.945312 41.613281 67.023438 41.460938 C 67.292969 41.082031 67.765625 41.714844 68.53125 40.792969 C 68.851562 40.433594 68.457031 40.054688 68.414062 39.667969 C 68.324219 39.144531 68 38.726562 67.578125 38.40625 C 67.46875 38.304688 67.347656 38.199219 67.203125 38.164062 C 67.09375 38.136719 67.007812 38.078125 66.921875 38.007812 C 66.519531 37.601562 65.914062 37.53125 65.460938 37.222656 C 64.964844 36.847656 64.34375 36.675781 63.886719 36.25 C 63.40625 36.117188 63.03125 35.824219 62.621094 35.570312 C 62.59375 35.554688 62.578125 35.515625 62.558594 35.492188 C 62.484375 35.300781 62.246094 35.277344 62.128906 35.132812 C 61.902344 34.804688 61.421875 34.875 61.253906 34.503906 C 61.011719 34.15625 60.53125 34.085938 60.289062 33.722656 C 60.230469 33.644531 60.148438 33.609375 60.050781 33.597656 C 59.613281 33.53125 59.417969 33.082031 58.992188 32.96875 C 58.816406 32.921875 58.707031 32.742188 58.605469 32.597656 C 58.175781 32.285156 57.71875 32.003906 57.246094 31.753906 C 57.085938 31.617188 56.867188 31.566406 56.738281 31.402344 C 56.679688 31.335938 56.621094 31.292969 56.550781 31.25 C 56.171875 31.097656 55.925781 30.765625 55.585938 30.546875 C 55.359375 30.375 55.136719 30.195312 54.890625 30.066406 C 54.785156 30.011719 54.726562 29.921875 54.6875 29.824219 C 54.589844 29.597656 54.503906 29.363281 54.335938 29.167969 C 54.285156 29.109375 54.265625 29.035156 54.277344 28.953125 C 54.3125 28.679688 54.085938 28.460938 54.121094 28.203125 C 54.148438 27.890625 54.339844 27.621094 54.410156 27.3125 C 54.492188 26.714844 54.550781 26.109375 54.707031 25.527344 C 54.976562 24.496094 55.25 23.457031 55.46875 22.414062 C 55.449219 22.089844 55.648438 21.8125 55.683594 21.507812 C 55.789062 20.257812 55.863281 19.007812 56.050781 17.765625 C 56.078125 17.59375 56.089844 17.417969 56.03125 17.261719 C 55.914062 16.976562 55.941406 16.675781 55.902344 16.378906 C 55.863281 15.964844 56.035156 15.558594 55.96875 15.144531 C 55.847656 14.660156 55.925781 13.773438 55.253906 13.78125 Z M 55.261719 13.804688 " fill-opacity="1" fill-rule="nonzero"/></g></g></g></g><g clip-path="url(#7457c58243)"><g clip-path="url(#6457a30ee2)"><g clip-path="url(#b725376955)"><g clip-path="url(#40c315d07d)"><path fill="#000001" d="M 54.449219 13.417969 C 54.332031 12.765625 53.636719 12.3125 52.984375 12.40625 C 52.820312 12.425781 52.695312 12.476562 52.621094 12.636719 C 52.582031 12.730469 52.496094 12.800781 52.417969 12.863281 C 52.105469 13.074219 51.921875 13.414062 51.625 13.652344 C 51.320312 13.8125 51.25 14.183594 50.964844 14.335938 C 50.75 14.449219 50.617188 14.679688 50.375 14.761719 C 50.167969 14.964844 50.066406 15.265625 49.765625 15.367188 C 49.726562 15.386719 49.703125 15.417969 49.675781 15.464844 C 49.128906 16.082031 48.46875 16.628906 47.800781 17.128906 C 47.546875 17.257812 47.402344 17.523438 47.167969 17.675781 C 47.054688 17.742188 46.976562 17.832031 46.894531 17.9375 C 46.800781 18.058594 46.691406 18.175781 46.578125 18.289062 C 46.476562 18.398438 46.335938 18.398438 46.238281 18.5 C 45.765625 18.882812 45.371094 19.328125 44.941406 19.761719 C 44.523438 20.113281 44.117188 20.464844 43.765625 20.886719 C 43.460938 21.296875 42.957031 21.511719 42.714844 21.972656 C 42.6875 22.019531 42.667969 22.074219 42.613281 22.082031 C 42.46875 22.082031 42.371094 22.148438 42.289062 22.253906 C 42.257812 22.292969 42.195312 22.292969 42.144531 22.28125 C 41.917969 22.234375 41.703125 22.269531 41.492188 22.339844 C 41.105469 22.460938 40.914062 22.003906 40.605469 21.859375 C 39.824219 21.351562 39.128906 20.722656 38.351562 20.203125 C 37.730469 19.78125 37.148438 19.328125 36.558594 18.863281 C 36.210938 18.574219 35.890625 18.195312 35.476562 18 C 35.277344 17.957031 35.195312 17.746094 35.03125 17.636719 C 34.683594 17.421875 34.375 17.136719 34.019531 16.917969 C 33.894531 16.84375 33.832031 16.6875 33.691406 16.652344 C 33.496094 16.605469 33.390625 16.488281 33.28125 16.335938 C 32.855469 15.96875 32.335938 15.714844 31.886719 15.378906 C 31.519531 15.132812 31.1875 14.816406 30.734375 14.726562 C 30.625 14.699219 30.519531 14.667969 30.445312 14.589844 C 30.132812 14.347656 29.722656 14.691406 29.507812 14.914062 C 28.765625 15.640625 28.742188 16.421875 28.753906 17.386719 C 28.75 17.84375 28.917969 18.289062 28.917969 18.75 C 28.921875 19.023438 29.015625 19.277344 28.976562 19.550781 C 29.011719 19.847656 29.085938 20.160156 29.070312 20.460938 C 28.742188 19.878906 28.761719 18.761719 28.046875 18.523438 C 27.839844 18.488281 27.800781 18.660156 27.867188 18.824219 C 27.929688 19.140625 28.023438 19.445312 28.058594 19.757812 C 28.113281 20.410156 28.382812 21.015625 28.429688 21.660156 C 28.433594 21.699219 28.464844 21.734375 28.480469 21.773438 C 28.511719 21.8125 28.550781 21.859375 28.53125 21.910156 C 28.472656 22.160156 28.671875 22.355469 28.703125 22.585938 C 28.726562 23.007812 28.960938 23.363281 29.027344 23.765625 C 29.074219 24.046875 29.3125 24.261719 29.296875 24.5625 C 29.304688 24.632812 29.429688 24.722656 29.417969 24.804688 C 29.394531 24.953125 29.484375 25.058594 29.53125 25.183594 C 29.734375 25.65625 29.921875 26.125 30.085938 26.601562 C 30.375 27.355469 30.792969 28.109375 31.015625 28.894531 C 31.03125 29.042969 31.070312 29.167969 31.160156 29.28125 C 31.21875 29.351562 31.285156 29.433594 31.261719 29.53125 C 31.179688 29.859375 31.375 30.132812 31.414062 30.433594 C 31.441406 30.691406 31.515625 30.957031 31.617188 31.207031 C 31.671875 31.339844 31.679688 31.511719 31.589844 31.621094 C 31.453125 31.78125 31.378906 31.992188 31.171875 32.097656 C 31.125 32.121094 31.09375 32.160156 31.066406 32.207031 C 30.851562 32.621094 30.378906 32.828125 30.207031 33.246094 C 30.113281 33.496094 29.734375 33.484375 29.710938 33.820312 C 29.703125 33.890625 29.636719 33.933594 29.574219 33.96875 C 29.140625 34.203125 28.84375 34.582031 28.507812 34.929688 C 28.390625 35.0625 28.253906 35.199219 28.128906 35.324219 C 27.898438 35.546875 27.777344 35.886719 27.433594 36 C 27.1875 36.410156 26.785156 36.671875 26.445312 36.996094 C 26.222656 37.175781 26.027344 37.421875 25.875 37.695312 C 25.804688 37.832031 25.707031 37.996094 25.519531 38.035156 C 25.484375 38.035156 25.457031 38.082031 25.421875 38.113281 C 25.277344 38.253906 25.113281 38.386719 25.042969 38.582031 C 25.023438 38.636719 24.960938 38.6875 24.902344 38.722656 C 24.800781 38.789062 24.742188 38.875 24.695312 38.976562 C 24.582031 39.195312 24.382812 39.34375 24.21875 39.539062 C 23.945312 39.785156 23.804688 40.152344 23.539062 40.40625 C 23.425781 40.519531 23.3125 40.636719 23.273438 40.808594 C 23.269531 40.847656 23.238281 40.886719 23.199219 40.90625 C 22.925781 41.101562 22.757812 41.386719 22.597656 41.679688 C 22.140625 42.203125 22.078125 42.9375 22.316406 43.566406 C 22.378906 43.71875 22.414062 43.90625 22.597656 43.976562 C 22.957031 44.105469 23.328125 44.234375 23.71875 44.070312 C 23.765625 44.046875 23.824219 44.023438 23.863281 44.042969 C 24.042969 44.140625 24.242188 44.117188 24.433594 44.128906 C 25.0625 44.21875 25.695312 44.175781 26.324219 44.101562 C 26.769531 44.097656 27.21875 44.089844 27.667969 44.058594 C 28.429688 43.972656 29.207031 44.046875 29.960938 43.859375 C 30.574219 43.90625 31.175781 43.738281 31.792969 43.660156 C 32.46875 43.519531 33.125 43.320312 33.816406 43.207031 C 34.074219 43.164062 34.320312 43.042969 34.570312 43.003906 C 34.742188 43.042969 34.910156 42.984375 35.066406 42.9375 C 35.597656 42.773438 36.148438 42.648438 36.640625 42.390625 C 37.570312 44.859375 38.789062 47.195312 40.097656 49.484375 C 40.632812 50.386719 41.085938 51.441406 41.742188 52.253906 C 41.78125 52.222656 41.761719 52.152344 41.84375 52.171875 C 42.097656 52.488281 42.207031 52.878906 42.417969 53.21875 C 42.679688 53.640625 42.914062 54.074219 43.125 54.523438 C 43.191406 54.671875 43.269531 54.8125 43.375 54.929688 C 43.789062 55.394531 44.042969 55.964844 44.519531 56.363281 C 44.710938 56.527344 44.945312 56.59375 45.164062 56.691406 C 45.488281 56.839844 45.730469 56.632812 45.976562 56.496094 C 46.246094 56.496094 46.257812 56.242188 46.480469 56.152344 C 46.589844 56.242188 46.738281 56.375 46.847656 56.210938 C 47.148438 55.84375 47.222656 55.378906 47.382812 54.945312 C 47.464844 54.714844 47.511719 54.484375 47.539062 54.234375 C 47.566406 54.011719 47.730469 53.804688 47.714844 53.550781 C 47.839844 53.449219 47.851562 53.289062 47.851562 53.160156 C 47.851562 52.945312 47.933594 52.726562 47.992188 52.527344 C 47.945312 52.363281 48.054688 52.226562 48.089844 52.082031 C 48.179688 51.667969 48.324219 51.246094 48.28125 50.8125 C 48.269531 50.769531 48.277344 50.726562 48.316406 50.695312 C 48.460938 50.527344 48.433594 50.320312 48.449219 50.117188 C 48.460938 50.019531 48.445312 49.921875 48.496094 49.828125 C 48.53125 49.773438 48.535156 49.71875 48.527344 49.664062 C 48.511719 49.5 48.5625 49.34375 48.582031 49.1875 C 48.605469 48.980469 48.730469 48.804688 48.71875 48.597656 C 48.707031 48.390625 48.742188 48.199219 48.757812 47.996094 C 48.757812 47.664062 48.730469 47.359375 48.917969 47.070312 C 48.996094 46.867188 48.972656 46.617188 48.949219 46.398438 C 48.925781 46.300781 48.9375 46.191406 49.003906 46.097656 C 49.039062 46.046875 49.058594 45.992188 49.0625 45.9375 C 49.074219 45.585938 49.171875 45.230469 49.160156 44.882812 C 49.160156 44.390625 49.246094 43.914062 49.242188 43.433594 C 49.308594 42.660156 49.472656 41.882812 49.355469 41.101562 C 49.328125 40.910156 49.375 40.808594 49.558594 40.8125 C 50.027344 40.777344 50.476562 40.527344 50.9375 40.765625 C 51.105469 40.832031 51.28125 40.957031 51.488281 40.867188 C 51.527344 40.847656 51.574219 40.875 51.605469 40.898438 C 51.847656 41.058594 52.175781 40.972656 52.410156 41.152344 C 52.515625 41.21875 52.644531 41.125 52.761719 41.160156 C 55.140625 41.625 57.496094 42.183594 59.898438 42.476562 C 60.609375 42.5625 61.3125 42.628906 62.03125 42.648438 C 62.148438 42.652344 62.269531 42.644531 62.378906 42.605469 C 62.554688 42.539062 62.554688 42.539062 62.554688 42.300781 C 60.984375 42.238281 59.421875 42.089844 57.859375 41.828125 C 57.894531 41.761719 57.9375 41.75 57.972656 41.761719 C 58.265625 41.84375 58.582031 41.726562 58.863281 41.855469 C 58.964844 41.886719 59.078125 41.769531 59.179688 41.851562 C 59.265625 41.898438 59.359375 41.898438 59.449219 41.851562 C 59.488281 41.820312 59.550781 41.804688 59.597656 41.832031 C 59.867188 42.007812 60.175781 41.835938 60.460938 41.921875 C 60.585938 41.960938 60.765625 41.933594 60.910156 41.953125 C 60.980469 41.960938 61.046875 41.984375 61.109375 41.933594 C 61.398438 41.738281 61.710938 42.09375 62.007812 41.90625 C 62.046875 41.875 62.105469 41.902344 62.152344 41.914062 C 62.617188 42.011719 63.066406 41.9375 63.53125 41.882812 C 63.691406 41.839844 63.867188 41.789062 64.011719 41.9375 C 64.03125 41.960938 64.074219 41.953125 64.109375 41.949219 C 64.390625 41.960938 64.730469 41.878906 64.984375 41.941406 C 65.203125 42.054688 65.4375 41.917969 65.644531 42.015625 C 66.066406 41.980469 66.484375 41.933594 66.910156 41.921875 C 67.082031 41.910156 67.199219 41.777344 67.359375 41.75 C 67.730469 41.691406 67.871094 41.308594 68.085938 41.050781 C 68.167969 40.933594 68.296875 40.804688 68.234375 40.664062 C 68.136719 40.414062 68.175781 40.117188 67.992188 39.90625 C 67.644531 39.519531 67.203125 39.242188 66.742188 38.988281 C 66.472656 38.777344 66.25 38.488281 65.933594 38.335938 C 65.632812 38.148438 65.386719 37.890625 65.074219 37.726562 C 64.941406 37.65625 64.816406 37.550781 64.707031 37.460938 C 64.558594 37.339844 64.367188 37.277344 64.246094 37.125 C 64.175781 37.039062 64.078125 36.996094 63.976562 36.949219 C 63.875 36.902344 63.742188 36.882812 63.703125 36.738281 C 63.691406 36.707031 63.660156 36.683594 63.625 36.671875 C 63.371094 36.5625 63.199219 36.320312 62.933594 36.242188 C 62.691406 35.957031 62.289062 35.902344 62.039062 35.609375 C 61.941406 35.484375 61.765625 35.398438 61.617188 35.304688 C 61.445312 35.199219 61.316406 35.011719 61.144531 34.972656 C 60.898438 34.917969 60.738281 34.753906 60.578125 34.617188 C 60.378906 34.449219 60.136719 34.339844 59.9375 34.1875 C 59.242188 33.707031 58.488281 33.261719 57.851562 32.710938 C 57.570312 32.40625 57.171875 32.246094 56.917969 31.914062 C 56.605469 31.652344 56.234375 31.429688 55.953125 31.113281 C 55.910156 31.058594 55.828125 31.007812 55.761719 30.984375 C 55.445312 30.847656 55.238281 30.558594 55.035156 30.304688 C 54.960938 30.214844 54.875 30.140625 54.753906 30.101562 C 54.550781 30.035156 54.390625 29.902344 54.261719 29.726562 C 54.128906 29.5625 54.054688 29.359375 53.894531 29.207031 C 53.796875 29.023438 53.78125 28.78125 53.753906 28.574219 C 53.574219 27.605469 53.96875 26.652344 54.035156 25.6875 C 54.09375 25.082031 54.210938 24.480469 54.203125 23.867188 C 54.371094 21.667969 54.246094 19.4375 54.53125 17.242188 C 54.613281 18.40625 54.558594 19.574219 54.574219 20.730469 C 54.578125 21.421875 54.539062 22.101562 54.582031 22.789062 C 54.59375 22.878906 54.574219 22.984375 54.664062 23.078125 C 54.875 22.5 54.847656 21.941406 54.890625 21.347656 C 54.949219 20.4375 55.003906 19.523438 55.070312 18.621094 C 55.117188 16.972656 55.300781 15.265625 54.695312 13.703125 C 54.660156 13.550781 54.585938 13.410156 54.402344 13.417969 Z M 29.191406 20.847656 C 29.316406 20.910156 29.316406 20.972656 29.265625 21.078125 C 29.1875 21.015625 29.164062 20.957031 29.191406 20.847656 Z M 40.824219 49.878906 C 40.996094 50.234375 41.160156 50.59375 41.316406 50.949219 C 41.375 51.082031 41.496094 51.171875 41.492188 51.390625 C 40.410156 49.523438 39.574219 47.566406 38.609375 45.640625 C 38.042969 44.492188 37.484375 43.34375 37.003906 42.160156 C 37.113281 42.023438 37.28125 41.898438 37.355469 42.117188 C 37.691406 42.898438 37.953125 43.714844 38.324219 44.480469 C 38.566406 45.144531 38.835938 45.792969 39.203125 46.40625 C 39.351562 46.71875 39.453125 47.054688 39.671875 47.320312 C 39.914062 47.621094 39.824219 48.085938 40.136719 48.34375 C 40.179688 48.382812 40.210938 48.433594 40.226562 48.484375 C 40.359375 48.972656 40.613281 49.414062 40.832031 49.871094 Z M 53.136719 16.351562 C 53.085938 17 53.105469 17.691406 53.015625 18.335938 C 52.960938 18.621094 53.019531 18.914062 52.859375 19.171875 C 52.84375 19.1875 52.835938 19.226562 52.84375 19.25 C 52.9375 19.605469 52.785156 19.953125 52.746094 20.300781 C 52.695312 20.683594 52.8125 21.097656 52.625 21.453125 C 52.53125 21.605469 52.511719 21.757812 52.609375 21.90625 C 52.65625 21.984375 52.648438 22.050781 52.625 22.148438 C 52.546875 22.402344 52.484375 22.65625 52.398438 22.898438 C 52.339844 23.078125 52.378906 23.285156 52.34375 23.476562 C 52.277344 23.808594 52.238281 24.144531 52.320312 24.484375 C 52.183594 24.660156 52.21875 24.894531 52.121094 25.089844 C 52.09375 25.136719 52.054688 25.179688 52.070312 25.230469 C 52.152344 25.429688 52.046875 25.628906 52.066406 25.828125 C 52.070312 25.851562 52.074219 25.886719 52.066406 25.90625 C 51.929688 26.179688 52.003906 26.464844 52.035156 26.753906 C 52.070312 27.167969 51.792969 27.53125 51.886719 27.9375 C 51.902344 28.179688 51.820312 28.410156 51.90625 28.644531 C 51.929688 28.703125 51.9375 28.757812 51.910156 28.820312 C 51.753906 29.273438 51.898438 29.664062 52.070312 30.082031 C 51.878906 30.160156 51.894531 30.289062 51.949219 30.472656 C 52.417969 31.71875 53.78125 32.203125 54.816406 32.902344 C 54.910156 32.953125 54.996094 33.035156 55.101562 33.066406 C 55.648438 33.269531 56.007812 33.765625 56.5625 33.976562 C 56.910156 34.152344 57.167969 34.476562 57.550781 34.613281 C 57.832031 34.714844 58.070312 34.929688 58.289062 35.132812 C 58.542969 35.195312 58.679688 35.414062 58.875 35.5625 C 59.128906 35.75 59.40625 35.90625 59.675781 36.082031 C 59.855469 36.191406 60.039062 36.292969 60.234375 36.378906 C 60.398438 36.4375 60.5 36.582031 60.621094 36.699219 C 60.816406 36.894531 61.066406 37 61.289062 37.148438 C 61.34375 37.183594 61.40625 37.195312 61.441406 37.242188 C 61.699219 37.53125 62.03125 37.707031 62.320312 37.953125 C 62.753906 38.378906 63.398438 38.542969 63.789062 39 C 64.128906 39.167969 64.375 39.488281 64.703125 39.65625 C 65.203125 39.964844 65.765625 40.167969 66.222656 40.546875 C 66.175781 40.675781 66.089844 40.695312 66.011719 40.695312 C 65.332031 40.707031 64.664062 40.574219 63.988281 40.5625 C 63.324219 40.527344 62.675781 40.40625 62.019531 40.414062 C 61.648438 40.382812 61.289062 40.253906 60.914062 40.277344 C 58.992188 40.066406 57.078125 39.796875 55.148438 39.652344 C 54.074219 39.605469 53.011719 39.523438 51.933594 39.40625 C 51.339844 39.378906 50.75 39.410156 50.152344 39.394531 C 49.949219 39.382812 49.75 39.390625 49.570312 39.511719 C 49.21875 39.617188 48.855469 39.71875 48.5 39.851562 C 48.429688 39.871094 48.351562 39.921875 48.332031 39.988281 C 48.28125 40.132812 48.15625 40.21875 48.0625 40.320312 C 47.722656 40.707031 47.492188 41.199219 47.492188 41.71875 C 47.507812 41.960938 47.4375 42.207031 47.386719 42.445312 C 47.292969 42.851562 47.410156 43.265625 47.265625 43.671875 C 47.234375 43.839844 47.1875 44.003906 47.195312 44.171875 C 47.222656 44.621094 47.097656 45.050781 47.015625 45.484375 C 46.851562 46.515625 46.59375 47.546875 46.527344 48.601562 C 46.371094 49.03125 46.226562 49.464844 46.25 49.925781 C 46.273438 50.125 46.136719 50.273438 46.113281 50.453125 C 46.0625 50.925781 45.925781 51.390625 45.929688 51.871094 C 45.929688 51.921875 45.925781 51.976562 45.890625 52.015625 C 45.816406 52.128906 45.816406 52.253906 45.816406 52.378906 C 45.699219 52.929688 45.664062 53.503906 45.566406 54.066406 C 45.542969 54.195312 45.734375 54.324219 45.621094 54.4375 C 45.445312 54.617188 45.484375 54.839844 45.382812 55.046875 C 45.242188 55.046875 45.171875 54.941406 45.117188 54.84375 C 45.003906 54.605469 44.820312 54.410156 44.675781 54.199219 C 44.59375 54.097656 44.507812 53.992188 44.484375 53.847656 C 44.460938 53.726562 44.347656 53.679688 44.246094 53.617188 C 44.308594 53.316406 43.929688 53.191406 43.917969 52.894531 C 43.917969 52.832031 43.867188 52.796875 43.828125 52.753906 C 43.699219 52.578125 43.703125 52.308594 43.476562 52.1875 C 43.503906 51.507812 42.808594 51.089844 42.695312 50.460938 C 42.523438 50.195312 42.535156 49.828125 42.285156 49.601562 C 42.226562 49.542969 42.171875 49.488281 42.171875 49.410156 C 42.175781 49.207031 42.066406 49.042969 42.015625 48.855469 C 41.976562 48.707031 41.902344 48.617188 41.761719 48.539062 C 41.847656 48.089844 41.4375 48.28125 41.457031 47.859375 C 41.429688 47.347656 40.894531 47.109375 40.847656 46.613281 C 40.832031 46.511719 40.8125 46.425781 40.722656 46.347656 C 40.457031 46.15625 40.542969 45.773438 40.3125 45.550781 C 40.28125 45.511719 40.246094 45.464844 40.25 45.410156 C 40.273438 45.011719 39.914062 44.820312 39.753906 44.507812 C 39.605469 44.195312 39.339844 43.964844 39.183594 43.660156 C 38.855469 43.140625 38.621094 42.566406 38.332031 42.027344 C 38.234375 41.878906 38.25 41.738281 38.324219 41.578125 C 38.433594 41.351562 38.429688 41.34375 38.25 41.167969 C 38.09375 40.976562 37.839844 40.929688 37.648438 40.804688 C 37.421875 40.570312 37.132812 40.699219 36.875 40.746094 C 36.539062 40.710938 36.234375 40.902344 35.90625 40.90625 C 35.480469 41.105469 35 41.0625 34.550781 41.222656 C 34.222656 41.335938 33.871094 41.390625 33.515625 41.425781 C 33.285156 41.457031 33.078125 41.5625 32.839844 41.539062 C 32.546875 41.773438 32.144531 41.640625 31.832031 41.839844 C 31.484375 41.882812 31.15625 41.96875 30.8125 42.015625 C 30.359375 42.054688 29.925781 42.214844 29.460938 42.242188 C 29.167969 42.304688 28.878906 42.421875 28.570312 42.339844 C 28.257812 42.238281 27.964844 42.476562 27.648438 42.464844 C 27.300781 42.429688 26.953125 42.492188 26.609375 42.476562 C 26.488281 42.449219 26.355469 42.441406 26.238281 42.488281 C 25.972656 42.585938 25.683594 42.5625 25.429688 42.65625 C 24.875 42.824219 24.289062 42.765625 23.738281 42.953125 C 23.636719 43 23.527344 42.960938 23.40625 42.890625 C 23.4375 42.449219 23.890625 42.238281 24.019531 41.839844 C 24.027344 41.820312 24.039062 41.789062 24.054688 41.773438 C 24.304688 41.609375 24.414062 41.332031 24.585938 41.105469 C 24.742188 40.902344 25 40.796875 25.066406 40.527344 C 25.402344 40.15625 25.679688 39.71875 26.046875 39.371094 C 26.15625 39.28125 26.242188 39.148438 26.300781 39.015625 C 26.539062 38.582031 27.003906 38.335938 27.300781 37.941406 C 27.773438 37.34375 28.296875 36.785156 28.859375 36.28125 C 30.097656 35.078125 31.285156 33.808594 32.28125 32.398438 C 32.390625 32.21875 32.527344 32.007812 32.535156 31.796875 C 32.46875 31.21875 32.566406 30.632812 32.464844 30.058594 C 32.425781 29.835938 32.421875 29.609375 32.308594 29.40625 C 32.273438 29.363281 32.265625 29.289062 32.273438 29.234375 C 32.347656 28.628906 32.042969 28.089844 31.980469 27.507812 C 31.945312 26.558594 31.460938 25.707031 31.367188 24.78125 C 31.296875 24.28125 31.136719 23.800781 30.964844 23.332031 C 30.925781 23.238281 30.902344 23.144531 30.933594 23.039062 C 30.996094 22.722656 30.695312 22.460938 30.773438 22.128906 C 30.714844 21.785156 30.621094 21.417969 30.488281 21.078125 C 30.457031 21.007812 30.429688 20.941406 30.429688 20.863281 C 30.445312 20.390625 30.328125 19.945312 30.222656 19.496094 C 30.023438 18.820312 29.953125 18.128906 29.917969 17.421875 C 29.855469 17.234375 29.890625 17.039062 29.914062 16.84375 C 29.832031 16.503906 29.953125 16.214844 30.105469 15.929688 C 30.175781 15.886719 30.234375 15.914062 30.273438 15.960938 C 30.6875 16.332031 31.230469 16.515625 31.671875 16.859375 C 32.007812 17.082031 32.296875 17.378906 32.675781 17.546875 C 32.808594 17.601562 32.902344 17.703125 33.011719 17.804688 C 33.261719 18.035156 33.492188 18.308594 33.820312 18.445312 C 33.921875 18.492188 34.011719 18.558594 34.089844 18.636719 C 34.386719 18.941406 34.753906 19.164062 35.035156 19.496094 C 35.109375 19.585938 35.21875 19.640625 35.3125 19.714844 C 35.386719 19.769531 35.472656 19.816406 35.511719 19.910156 C 35.523438 19.925781 35.539062 19.960938 35.558594 19.972656 C 35.828125 20.085938 35.992188 20.347656 36.253906 20.464844 C 36.632812 20.730469 36.9375 21.09375 37.367188 21.277344 C 37.675781 21.421875 37.804688 21.761719 38.128906 21.894531 C 38.324219 21.988281 38.4375 22.179688 38.613281 22.300781 C 38.769531 22.402344 38.925781 22.515625 39.027344 22.703125 C 39.09375 22.835938 39.265625 22.875 39.375 22.980469 C 39.566406 23.152344 39.714844 23.402344 39.996094 23.480469 C 40.042969 23.492188 40.082031 23.539062 40.105469 23.582031 C 40.246094 23.824219 40.449219 23.976562 40.703125 24.089844 C 41.183594 24.257812 41.625 24.628906 42.171875 24.5 C 42.9375 24.480469 43.179688 24.308594 43.738281 23.796875 C 44.234375 23.335938 44.8125 22.929688 45.234375 22.390625 C 45.34375 22.226562 45.460938 22.066406 45.652344 21.988281 C 45.710938 21.96875 45.746094 21.914062 45.769531 21.867188 C 45.949219 21.582031 46.136719 21.257812 46.425781 21.0625 C 46.957031 20.722656 47.234375 20.132812 47.734375 19.753906 C 48.03125 19.347656 48.351562 18.953125 48.761719 18.636719 C 49.007812 18.4375 49.210938 18.195312 49.40625 17.949219 C 49.933594 17.449219 50.507812 16.972656 50.996094 16.417969 C 51.078125 16.3125 51.160156 16.195312 51.292969 16.152344 C 51.578125 15.921875 51.804688 15.613281 52.078125 15.355469 C 52.210938 15.171875 52.453125 15.167969 52.578125 14.976562 C 52.679688 14.832031 52.847656 14.847656 52.992188 14.855469 C 53.078125 14.867188 53.117188 14.949219 53.109375 15.03125 C 53.050781 15.496094 53.195312 15.949219 53.144531 16.421875 Z M 54.582031 17.050781 C 54.515625 16.933594 54.503906 16.796875 54.550781 16.632812 C 54.609375 16.800781 54.597656 16.910156 54.582031 17.050781 Z M 54.582031 17.050781 " fill-opacity="1" fill-rule="nonzero"/></g></g></g></g><g fill="#000000" fill-opacity="1"><g transform="translate(76.800751, 31.439387)"><g><path d="M 6.875 0.15625 C 5.757812 0.15625 4.757812 -0.0234375 3.875 -0.390625 C 2.988281 -0.753906 2.28125 -1.289062 1.75 -2 C 1.21875 -2.707031 0.941406 -3.566406 0.921875 -4.578125 L 4.875 -4.578125 C 4.9375 -4.003906 5.132812 -3.566406 5.46875 -3.265625 C 5.800781 -2.972656 6.234375 -2.828125 6.765625 -2.828125 C 7.316406 -2.828125 7.75 -2.953125 8.0625 -3.203125 C 8.382812 -3.460938 8.546875 -3.816406 8.546875 -4.265625 C 8.546875 -4.640625 8.421875 -4.953125 8.171875 -5.203125 C 7.921875 -5.453125 7.609375 -5.65625 7.234375 -5.8125 C 6.867188 -5.96875 6.34375 -6.148438 5.65625 -6.359375 C 4.664062 -6.660156 3.859375 -6.960938 3.234375 -7.265625 C 2.617188 -7.578125 2.082031 -8.03125 1.625 -8.625 C 1.175781 -9.21875 0.953125 -9.992188 0.953125 -10.953125 C 0.953125 -12.367188 1.46875 -13.476562 2.5 -14.28125 C 3.53125 -15.09375 4.875 -15.5 6.53125 -15.5 C 8.207031 -15.5 9.5625 -15.09375 10.59375 -14.28125 C 11.625 -13.476562 12.175781 -12.359375 12.25 -10.921875 L 8.234375 -10.921875 C 8.203125 -11.421875 8.019531 -11.8125 7.6875 -12.09375 C 7.351562 -12.375 6.925781 -12.515625 6.40625 -12.515625 C 5.945312 -12.515625 5.578125 -12.394531 5.296875 -12.15625 C 5.023438 -11.914062 4.890625 -11.570312 4.890625 -11.125 C 4.890625 -10.625 5.125 -10.238281 5.59375 -9.96875 C 6.0625 -9.695312 6.785156 -9.398438 7.765625 -9.078125 C 8.753906 -8.742188 9.554688 -8.421875 10.171875 -8.109375 C 10.785156 -7.804688 11.316406 -7.363281 11.765625 -6.78125 C 12.222656 -6.207031 12.453125 -5.460938 12.453125 -4.546875 C 12.453125 -3.679688 12.226562 -2.890625 11.78125 -2.171875 C 11.34375 -1.460938 10.703125 -0.894531 9.859375 -0.46875 C 9.015625 -0.0507812 8.019531 0.15625 6.875 0.15625 Z M 6.875 0.15625 "/></g></g></g><g fill="#000000" fill-opacity="1"><g transform="translate(90.182608, 31.439387)"><g><path d="M 0.609375 -6.078125 C 0.609375 -7.335938 0.863281 -8.4375 1.375 -9.375 C 1.894531 -10.320312 2.613281 -11.046875 3.53125 -11.546875 C 4.457031 -12.054688 5.515625 -12.3125 6.703125 -12.3125 C 8.222656 -12.3125 9.492188 -11.910156 10.515625 -11.109375 C 11.546875 -10.316406 12.21875 -9.195312 12.53125 -7.75 L 8.578125 -7.75 C 8.242188 -8.675781 7.597656 -9.140625 6.640625 -9.140625 C 5.953125 -9.140625 5.40625 -8.875 5 -8.34375 C 4.59375 -7.8125 4.390625 -7.054688 4.390625 -6.078125 C 4.390625 -5.085938 4.59375 -4.328125 5 -3.796875 C 5.40625 -3.265625 5.953125 -3 6.640625 -3 C 7.597656 -3 8.242188 -3.460938 8.578125 -4.390625 L 12.53125 -4.390625 C 12.21875 -2.972656 11.546875 -1.859375 10.515625 -1.046875 C 9.484375 -0.234375 8.210938 0.171875 6.703125 0.171875 C 5.515625 0.171875 4.457031 -0.078125 3.53125 -0.578125 C 2.613281 -1.085938 1.894531 -1.8125 1.375 -2.75 C 0.863281 -3.695312 0.609375 -4.804688 0.609375 -6.078125 Z M 0.609375 -6.078125 "/></g></g></g><g fill="#000000" fill-opacity="1"><g transform="translate(103.346869, 31.439387)"><g><path d="M 3.21875 -13.40625 C 2.5625 -13.40625 2.023438 -13.597656 1.609375 -13.984375 C 1.203125 -14.367188 1 -14.84375 1 -15.40625 C 1 -15.988281 1.203125 -16.472656 1.609375 -16.859375 C 2.023438 -17.242188 2.5625 -17.4375 3.21875 -17.4375 C 3.851562 -17.4375 4.378906 -17.242188 4.796875 -16.859375 C 5.210938 -16.472656 5.421875 -15.988281 5.421875 -15.40625 C 5.421875 -14.84375 5.210938 -14.367188 4.796875 -13.984375 C 4.378906 -13.597656 3.851562 -13.40625 3.21875 -13.40625 Z M 5.078125 -12.140625 L 5.078125 0 L 1.34375 0 L 1.34375 -12.140625 Z M 5.078125 -12.140625 "/></g></g></g><g fill="#000000" fill-opacity="1"><g transform="translate(109.765809, 31.439387)"><g><path d="M 12.796875 -6.265625 C 12.796875 -5.921875 12.773438 -5.5625 12.734375 -5.1875 L 4.3125 -5.1875 C 4.363281 -4.425781 4.601562 -3.84375 5.03125 -3.4375 C 5.46875 -3.039062 5.992188 -2.84375 6.609375 -2.84375 C 7.546875 -2.84375 8.191406 -3.238281 8.546875 -4.03125 L 12.515625 -4.03125 C 12.304688 -3.226562 11.9375 -2.507812 11.40625 -1.875 C 10.882812 -1.238281 10.222656 -0.738281 9.421875 -0.375 C 8.628906 -0.0078125 7.738281 0.171875 6.75 0.171875 C 5.5625 0.171875 4.5 -0.078125 3.5625 -0.578125 C 2.632812 -1.085938 1.910156 -1.8125 1.390625 -2.75 C 0.867188 -3.695312 0.609375 -4.804688 0.609375 -6.078125 C 0.609375 -7.335938 0.863281 -8.4375 1.375 -9.375 C 1.894531 -10.320312 2.617188 -11.046875 3.546875 -11.546875 C 4.472656 -12.054688 5.539062 -12.3125 6.75 -12.3125 C 7.925781 -12.3125 8.96875 -12.066406 9.875 -11.578125 C 10.789062 -11.085938 11.503906 -10.382812 12.015625 -9.46875 C 12.535156 -8.550781 12.796875 -7.484375 12.796875 -6.265625 Z M 8.984375 -7.25 C 8.984375 -7.882812 8.765625 -8.390625 8.328125 -8.765625 C 7.898438 -9.148438 7.359375 -9.34375 6.703125 -9.34375 C 6.078125 -9.34375 5.550781 -9.160156 5.125 -8.796875 C 4.695312 -8.429688 4.429688 -7.914062 4.328125 -7.25 Z M 8.984375 -7.25 "/></g></g></g><g fill="#000000" fill-opacity="1"><g transform="translate(123.169429, 31.439387)"><g><path d="M 8.75 -12.28125 C 10.175781 -12.28125 11.3125 -11.816406 12.15625 -10.890625 C 13 -9.972656 13.421875 -8.707031 13.421875 -7.09375 L 13.421875 0 L 9.734375 0 L 9.734375 -6.59375 C 9.734375 -7.40625 9.519531 -8.035156 9.09375 -8.484375 C 8.675781 -8.929688 8.113281 -9.15625 7.40625 -9.15625 C 6.6875 -9.15625 6.117188 -8.929688 5.703125 -8.484375 C 5.285156 -8.035156 5.078125 -7.40625 5.078125 -6.59375 L 5.078125 0 L 1.34375 0 L 1.34375 -12.140625 L 5.078125 -12.140625 L 5.078125 -10.53125 C 5.453125 -11.070312 5.957031 -11.5 6.59375 -11.8125 C 7.226562 -12.125 7.945312 -12.28125 8.75 -12.28125 Z M 8.75 -12.28125 "/></g></g></g><g fill="#000000" fill-opacity="1"><g transform="translate(137.835071, 31.439387)"><g><path d="M 0.609375 -6.078125 C 0.609375 -7.335938 0.863281 -8.4375 1.375 -9.375 C 1.894531 -10.320312 2.613281 -11.046875 3.53125 -11.546875 C 4.457031 -12.054688 5.515625 -12.3125 6.703125 -12.3125 C 8.222656 -12.3125 9.492188 -11.910156 10.515625 -11.109375 C 11.546875 -10.316406 12.21875 -9.195312 12.53125 -7.75 L 8.578125 -7.75 C 8.242188 -8.675781 7.597656 -9.140625 6.640625 -9.140625 C 5.953125 -9.140625 5.40625 -8.875 5 -8.34375 C 4.59375 -7.8125 4.390625 -7.054688 4.390625 -6.078125 C 4.390625 -5.085938 4.59375 -4.328125 5 -3.796875 C 5.40625 -3.265625 5.953125 -3 6.640625 -3 C 7.597656 -3 8.242188 -3.460938 8.578125 -4.390625 L 12.53125 -4.390625 C 12.21875 -2.972656 11.546875 -1.859375 10.515625 -1.046875 C 9.484375 -0.234375 8.210938 0.171875 6.703125 0.171875 C 5.515625 0.171875 4.457031 -0.078125 3.53125 -0.578125 C 2.613281 -1.085938 1.894531 -1.8125 1.375 -2.75 C 0.863281 -3.695312 0.609375 -4.804688 0.609375 -6.078125 Z M 0.609375 -6.078125 "/></g></g></g><g fill="#000000" fill-opacity="1"><g transform="translate(150.999331, 31.439387)"><g><path d="M 12.796875 -6.265625 C 12.796875 -5.921875 12.773438 -5.5625 12.734375 -5.1875 L 4.3125 -5.1875 C 4.363281 -4.425781 4.601562 -3.84375 5.03125 -3.4375 C 5.46875 -3.039062 5.992188 -2.84375 6.609375 -2.84375 C 7.546875 -2.84375 8.191406 -3.238281 8.546875 -4.03125 L 12.515625 -4.03125 C 12.304688 -3.226562 11.9375 -2.507812 11.40625 -1.875 C 10.882812 -1.238281 10.222656 -0.738281 9.421875 -0.375 C 8.628906 -0.0078125 7.738281 0.171875 6.75 0.171875 C 5.5625 0.171875 4.5 -0.078125 3.5625 -0.578125 C 2.632812 -1.085938 1.910156 -1.8125 1.390625 -2.75 C 0.867188 -3.695312 0.609375 -4.804688 0.609375 -6.078125 C 0.609375 -7.335938 0.863281 -8.4375 1.375 -9.375 C 1.894531 -10.320312 2.617188 -11.046875 3.546875 -11.546875 C 4.472656 -12.054688 5.539062 -12.3125 6.75 -12.3125 C 7.925781 -12.3125 8.96875 -12.066406 9.875 -11.578125 C 10.789062 -11.085938 11.503906 -10.382812 12.015625 -9.46875 C 12.535156 -8.550781 12.796875 -7.484375 12.796875 -6.265625 Z M 8.984375 -7.25 C 8.984375 -7.882812 8.765625 -8.390625 8.328125 -8.765625 C 7.898438 -9.148438 7.359375 -9.34375 6.703125 -9.34375 C 6.078125 -9.34375 5.550781 -9.160156 5.125 -8.796875 C 4.695312 -8.429688 4.429688 -7.914062 4.328125 -7.25 Z M 8.984375 -7.25 "/></g></g></g><g fill="#000000" fill-opacity="1"><g transform="translate(164.410719, 31.439387)"><g/></g></g><g fill="#000000" fill-opacity="1"><g transform="translate(76.800751, 49.803048)"><g><path d="M 5 -15.28125 L 5 -6.140625 C 5 -5.222656 5.222656 -4.515625 5.671875 -4.015625 C 6.128906 -3.523438 6.789062 -3.28125 7.65625 -3.28125 C 8.53125 -3.28125 9.195312 -3.523438 9.65625 -4.015625 C 10.125 -4.515625 10.359375 -5.222656 10.359375 -6.140625 L 10.359375 -15.28125 L 14.078125 -15.28125 L 14.078125 -6.15625 C 14.078125 -4.789062 13.785156 -3.632812 13.203125 -2.6875 C 12.628906 -1.75 11.851562 -1.039062 10.875 -0.5625 C 9.894531 -0.0820312 8.800781 0.15625 7.59375 0.15625 C 6.394531 0.15625 5.316406 -0.078125 4.359375 -0.546875 C 3.410156 -1.023438 2.660156 -1.738281 2.109375 -2.6875 C 1.554688 -3.632812 1.28125 -4.789062 1.28125 -6.15625 L 1.28125 -15.28125 Z M 5 -15.28125 "/></g></g></g><g fill="#000000" fill-opacity="1"><g transform="translate(92.14093, 49.803048)"><g><path d="M 8.75 -12.28125 C 10.175781 -12.28125 11.3125 -11.816406 12.15625 -10.890625 C 13 -9.972656 13.421875 -8.707031 13.421875 -7.09375 L 13.421875 0 L 9.734375 0 L 9.734375 -6.59375 C 9.734375 -7.40625 9.519531 -8.035156 9.09375 -8.484375 C 8.675781 -8.929688 8.113281 -9.15625 7.40625 -9.15625 C 6.6875 -9.15625 6.117188 -8.929688 5.703125 -8.484375 C 5.285156 -8.035156 5.078125 -7.40625 5.078125 -6.59375 L 5.078125 0 L 1.34375 0 L 1.34375 -12.140625 L 5.078125 -12.140625 L 5.078125 -10.53125 C 5.453125 -11.070312 5.957031 -11.5 6.59375 -11.8125 C 7.226562 -12.125 7.945312 -12.28125 8.75 -12.28125 Z M 8.75 -12.28125 "/></g></g></g><g fill="#000000" fill-opacity="1"><g transform="translate(106.806572, 49.803048)"><g><path d="M 3.21875 -13.40625 C 2.5625 -13.40625 2.023438 -13.597656 1.609375 -13.984375 C 1.203125 -14.367188 1 -14.84375 1 -15.40625 C 1 -15.988281 1.203125 -16.472656 1.609375 -16.859375 C 2.023438 -17.242188 2.5625 -17.4375 3.21875 -17.4375 C 3.851562 -17.4375 4.378906 -17.242188 4.796875 -16.859375 C 5.210938 -16.472656 5.421875 -15.988281 5.421875 -15.40625 C 5.421875 -14.84375 5.210938 -14.367188 4.796875 -13.984375 C 4.378906 -13.597656 3.851562 -13.40625 3.21875 -13.40625 Z M 5.078125 -12.140625 L 5.078125 0 L 1.34375 0 L 1.34375 -12.140625 Z M 5.078125 -12.140625 "/></g></g></g><g fill="#000000" fill-opacity="1"><g transform="translate(113.225512, 49.803048)"><g><path d="M 6.8125 -3.484375 L 9.453125 -12.140625 L 13.40625 -12.140625 L 9.09375 0 L 4.5 0 L 0.203125 -12.140625 L 4.171875 -12.140625 Z M 6.8125 -3.484375 "/></g></g></g><g fill="#000000" fill-opacity="1"><g transform="translate(126.846713, 49.803048)"><g><path d="M 12.796875 -6.265625 C 12.796875 -5.921875 12.773438 -5.5625 12.734375 -5.1875 L 4.3125 -5.1875 C 4.363281 -4.425781 4.601562 -3.84375 5.03125 -3.4375 C 5.46875 -3.039062 5.992188 -2.84375 6.609375 -2.84375 C 7.546875 -2.84375 8.191406 -3.238281 8.546875 -4.03125 L 12.515625 -4.03125 C 12.304688 -3.226562 11.9375 -2.507812 11.40625 -1.875 C 10.882812 -1.238281 10.222656 -0.738281 9.421875 -0.375 C 8.628906 -0.0078125 7.738281 0.171875 6.75 0.171875 C 5.5625 0.171875 4.5 -0.078125 3.5625 -0.578125 C 2.632812 -1.085938 1.910156 -1.8125 1.390625 -2.75 C 0.867188 -3.695312 0.609375 -4.804688 0.609375 -6.078125 C 0.609375 -7.335938 0.863281 -8.4375 1.375 -9.375 C 1.894531 -10.320312 2.617188 -11.046875 3.546875 -11.546875 C 4.472656 -12.054688 5.539062 -12.3125 6.75 -12.3125 C 7.925781 -12.3125 8.96875 -12.066406 9.875 -11.578125 C 10.789062 -11.085938 11.503906 -10.382812 12.015625 -9.46875 C 12.535156 -8.550781 12.796875 -7.484375 12.796875 -6.265625 Z M 8.984375 -7.25 C 8.984375 -7.882812 8.765625 -8.390625 8.328125 -8.765625 C 7.898438 -9.148438 7.359375 -9.34375 6.703125 -9.34375 C 6.078125 -9.34375 5.550781 -9.160156 5.125 -8.796875 C 4.695312 -8.429688 4.429688 -7.914062 4.328125 -7.25 Z M 8.984375 -7.25 "/></g></g></g><g fill="#000000" fill-opacity="1"><g transform="translate(140.250333, 49.803048)"><g><path d="M 5.078125 -10.125 C 5.503906 -10.789062 6.046875 -11.316406 6.703125 -11.703125 C 7.359375 -12.085938 8.082031 -12.28125 8.875 -12.28125 L 8.875 -8.34375 L 7.859375 -8.34375 C 6.929688 -8.34375 6.234375 -8.140625 5.765625 -7.734375 C 5.304688 -7.335938 5.078125 -6.640625 5.078125 -5.640625 L 5.078125 0 L 1.34375 0 L 1.34375 -12.140625 L 5.078125 -12.140625 Z M 5.078125 -10.125 "/></g></g></g><g fill="#000000" fill-opacity="1"><g transform="translate(149.563238, 49.803048)"><g><path d="M 6.296875 0.171875 C 5.234375 0.171875 4.285156 -0.0078125 3.453125 -0.375 C 2.628906 -0.738281 1.976562 -1.234375 1.5 -1.859375 C 1.019531 -2.492188 0.753906 -3.203125 0.703125 -3.984375 L 4.375 -3.984375 C 4.414062 -3.566406 4.609375 -3.222656 4.953125 -2.953125 C 5.304688 -2.691406 5.738281 -2.5625 6.25 -2.5625 C 6.707031 -2.5625 7.0625 -2.648438 7.3125 -2.828125 C 7.570312 -3.015625 7.703125 -3.253906 7.703125 -3.546875 C 7.703125 -3.890625 7.519531 -4.144531 7.15625 -4.3125 C 6.789062 -4.488281 6.203125 -4.675781 5.390625 -4.875 C 4.523438 -5.082031 3.800781 -5.296875 3.21875 -5.515625 C 2.632812 -5.742188 2.132812 -6.097656 1.71875 -6.578125 C 1.300781 -7.066406 1.09375 -7.722656 1.09375 -8.546875 C 1.09375 -9.242188 1.28125 -9.878906 1.65625 -10.453125 C 2.039062 -11.023438 2.609375 -11.476562 3.359375 -11.8125 C 4.109375 -12.144531 5 -12.3125 6.03125 -12.3125 C 7.550781 -12.3125 8.75 -11.9375 9.625 -11.1875 C 10.507812 -10.4375 11.015625 -9.4375 11.140625 -8.1875 L 7.703125 -8.1875 C 7.648438 -8.601562 7.46875 -8.9375 7.15625 -9.1875 C 6.84375 -9.4375 6.429688 -9.5625 5.921875 -9.5625 C 5.484375 -9.5625 5.148438 -9.472656 4.921875 -9.296875 C 4.691406 -9.128906 4.578125 -8.90625 4.578125 -8.625 C 4.578125 -8.269531 4.757812 -8.003906 5.125 -7.828125 C 5.5 -7.660156 6.078125 -7.488281 6.859375 -7.3125 C 7.753906 -7.082031 8.484375 -6.851562 9.046875 -6.625 C 9.617188 -6.40625 10.117188 -6.039062 10.546875 -5.53125 C 10.972656 -5.03125 11.191406 -4.363281 11.203125 -3.53125 C 11.203125 -2.8125 11.003906 -2.171875 10.609375 -1.609375 C 10.210938 -1.054688 9.640625 -0.617188 8.890625 -0.296875 C 8.140625 0.015625 7.273438 0.171875 6.296875 0.171875 Z M 6.296875 0.171875 "/></g></g></g><g fill="#000000" fill-opacity="1"><g transform="translate(161.70482, 49.803048)"><g><path d="M 3.21875 -13.40625 C 2.5625 -13.40625 2.023438 -13.597656 1.609375 -13.984375 C 1.203125 -14.367188 1 -14.84375 1 -15.40625 C 1 -15.988281 1.203125 -16.472656 1.609375 -16.859375 C 2.023438 -17.242188 2.5625 -17.4375 3.21875 -17.4375 C 3.851562 -17.4375 4.378906 -17.242188 4.796875 -16.859375 C 5.210938 -16.472656 5.421875 -15.988281 5.421875 -15.40625 C 5.421875 -14.84375 5.210938 -14.367188 4.796875 -13.984375 C 4.378906 -13.597656 3.851562 -13.40625 3.21875 -13.40625 Z M 5.078125 -12.140625 L 5.078125 0 L 1.34375 0 L 1.34375 -12.140625 Z M 5.078125 -12.140625 "/></g></g></g><g fill="#000000" fill-opacity="1"><g transform="translate(168.12376, 49.803048)"><g><path d="M 8.125 -3.15625 L 8.125 0 L 6.21875 0 C 4.875 0 3.820312 -0.328125 3.0625 -0.984375 C 2.3125 -1.648438 1.9375 -2.726562 1.9375 -4.21875 L 1.9375 -9.046875 L 0.453125 -9.046875 L 0.453125 -12.140625 L 1.9375 -12.140625 L 1.9375 -15.109375 L 5.65625 -15.109375 L 5.65625 -12.140625 L 8.09375 -12.140625 L 8.09375 -9.046875 L 5.65625 -9.046875 L 5.65625 -4.171875 C 5.65625 -3.816406 5.742188 -3.554688 5.921875 -3.390625 C 6.097656 -3.234375 6.390625 -3.15625 6.796875 -3.15625 Z M 8.125 -3.15625 "/></g></g></g><g fill="#000000" fill-opacity="1"><g transform="translate(176.957963, 49.803048)"><g><path d="M 13.75 -12.140625 L 6.140625 5.765625 L 2.140625 5.765625 L 4.921875 -0.40625 L -0.015625 -12.140625 L 4.140625 -12.140625 L 6.9375 -4.546875 L 9.734375 -12.140625 Z M 13.75 -12.140625 "/></g></g></g></svg>